<?xml version="1.0" standalone="no"?>
<!DOCTYPE svg PUBLIC "-//W3C//DTD SVG 20010904//EN"
 "http://www.w3.org/TR/2001/REC-SVG-20010904/DTD/svg10.dtd">
<svg version="1.0" xmlns="http://www.w3.org/2000/svg"
 width="300.000000pt" height="300.000000pt" viewBox="0 0 300.000000 300.000000"
 preserveAspectRatio="xMidYMid meet">
<metadata>
Created by potrace 1.11, written by Peter Selinger 2001-2013
</metadata>
<g transform="translate(0.000000,300.000000) scale(0.100000,-0.100000)"
fill="#000000" stroke="none">
<path d="M1340 2989 c-253 -27 -520 -131 -735 -289 -77 -56 -249 -228 -305
-305 -120 -163 -208 -352 -255 -545 -103 -428 -11 -882 255 -1245 56 -77 228
-249 305 -305 163 -120 352 -208 545 -255 428 -103 882 -11 1245 255 77 56
249 228 305 305 120 163 208 352 255 545 103 428 11 882 -255 1245 -56 77
-228 249 -305 305 -222 163 -482 262 -754 290 -117 11 -179 11 -301 -1z m-350
-993 c36 -8 103 -28 148 -46 l82 -31 0 -90 c0 -49 -3 -89 -7 -89 -3 0 -21 11
-38 24 -56 43 -152 86 -222 101 -249 53 -428 -57 -478 -292 -44 -208 19 -416
154 -502 139 -89 354 -75 517 34 37 25 68 45 70 45 2 0 4 -39 4 -86 l0 -85
-65 -30 c-113 -51 -224 -72 -345 -66 -112 6 -166 19 -250 62 -153 77 -249 268
-250 493 -1 352 202 568 535 571 44 0 109 -6 145 -13z m620 -433 c57 -236 106
-437 110 -447 4 -12 45 133 109 390 56 225 106 426 112 447 l10 37 73 0 74 0
107 -437 c59 -241 110 -443 114 -450 3 -7 53 190 111 437 l104 450 79 0 c70 0
78 -2 73 -17 -3 -10 -62 -238 -131 -508 -69 -269 -131 -507 -136 -527 l-10
-38 -82 0 -82 0 -109 435 c-61 239 -112 439 -116 444 -3 5 -54 -190 -115 -435
l-109 -444 -80 0 -81 0 -139 533 c-77 292 -141 538 -144 545 -3 9 16 12 75 12
l79 0 104 -427z"/>
</g>
</svg>
