<?xml version="1.0" encoding="utf-8"?>
<!-- Generator: Adobe Illustrator 22.1.0, SVG Export Plug-In . SVG Version: 6.00 Build 0)  -->
<svg version="1.1" id="Layer_1" xmlns="http://www.w3.org/2000/svg" xmlns:xlink="http://www.w3.org/1999/xlink" x="0px" y="0px"
	 viewBox="0 0 147 147" style="enable-background:new 0 0 147 147;" xml:space="preserve">
<style type="text/css">
	.st0{fill:#FFA630;}
</style>
<g id="XMLID_4_">
	<path id="XMLID_845_" class="st0" d="M99.7,78V61.2c0-2.2-2.3-3.5-3.9-2.2L68.7,80.2c-1.6,1.3-3.9,0-3.9-2.2V58.6
		c0-1.5-1.1-2.7-2.5-2.7h-3.8c-1.4,0-2.5-1.2-2.5-2.7V36.2c0-1.5-1.1-2.7-2.5-2.7h-3.8c-1.4,0-2.5,1.2-2.5,2.7v16.9
		c0,1.5-1.1,2.7-2.5,2.7H41c-1.4,0-2.5-1.2-2.5-2.7V20.2c0-1.5-1.1-2.7-2.5-2.7H23.5c-1.4,0-2.5,1.2-2.5,2.7v32.9
		c0,1.5-1.1,2.7-2.5,2.7h-3.8c-1.4,0-2.5,1.2-2.5,2.7v68.1c0,1.5,1.1,2.7,2.5,2.7h117.4c1.4,0,2.5-1.2,2.5-2.7V61.2
		c0-2.2-2.3-3.5-3.9-2.2l-27.1,21.3C102,81.5,99.7,80.2,99.7,78z M56.4,113.5h-6.7c-1.4,0-2.5-1.2-2.5-2.7v-7.3
		c0-1.5,1.1-2.7,2.5-2.7h6.7c1.4,0,2.5,1.2,2.5,2.7v7.3C58.9,112.3,57.8,113.5,56.4,113.5z M76.8,113.5h-6.7c-1.4,0-2.5-1.2-2.5-2.7
		v-7.3c0-1.5,1.1-2.7,2.5-2.7h6.7c1.4,0,2.5,1.2,2.5,2.7v7.3C79.3,112.3,78.2,113.5,76.8,113.5z M97.2,113.5h-6.7
		c-1.4,0-2.5-1.2-2.5-2.7v-7.3c0-1.5,1.1-2.7,2.5-2.7h6.7c1.4,0,2.5,1.2,2.5,2.7v7.3C99.7,112.3,98.6,113.5,97.2,113.5z"/>
</g>
</svg>
