<?xml version="1.0" encoding="utf-8"?>
<!-- Generator: Adobe Illustrator 22.1.0, SVG Export Plug-In . SVG Version: 6.00 Build 0)  -->
<svg version="1.1" id="Layer_1" xmlns="http://www.w3.org/2000/svg" xmlns:xlink="http://www.w3.org/1999/xlink" x="0px" y="0px"
	 viewBox="0 0 147 147" style="enable-background:new 0 0 147 147;" xml:space="preserve">
<style type="text/css">
	.st0{fill:#5A5A5A;}
</style>
<path class="st0" d="M132.7,58H117V30.4c0-1.6-1.3-2.9-2.9-2.9h-5c-1.6,0-2.9,1.3-2.9,2.9V58H14.3c-1.6,0-2.9,1.3-2.9,2.9v65.5
	c0,1.6,1.3,2.9,2.9,2.9h81.1c0-0.1,0-0.3,0-0.4v-14.9c0-5.9,4.9-10.8,10.8-10.8s10.8,4.9,10.8,10.8V129c0,0.1,0,0.3,0,0.4h15.7
	c1.6,0,2.9-1.3,2.9-2.9V60.9C135.6,59.3,134.3,58,132.7,58z M34.7,73.3c0,1.6-1.3,2.9-2.9,2.9H20.9c-1.6,0-2.9-1.3-2.9-2.9v-5.6
	c0-1.6,1.3-2.9,2.9-2.9h10.9c1.6,0,2.9,1.3,2.9,2.9V73.3z M55.3,73.3c0,1.6-1.3,2.9-2.9,2.9H41.5c-1.6,0-2.9-1.3-2.9-2.9v-5.6
	c0-1.6,1.3-2.9,2.9-2.9h10.9c1.6,0,2.9,1.3,2.9,2.9V73.3z M75.8,73.3c0,1.6-1.3,2.9-2.9,2.9H62c-1.6,0-2.9-1.3-2.9-2.9v-5.6
	c0-1.6,1.3-2.9,2.9-2.9h10.9c1.6,0,2.9,1.3,2.9,2.9V73.3z M96.4,73.3c0,1.6-1.3,2.9-2.9,2.9H82.6c-1.6,0-2.9-1.3-2.9-2.9v-5.6
	c0-1.6,1.3-2.9,2.9-2.9h10.9c1.6,0,2.9,1.3,2.9,2.9V73.3z"/>
</svg>
