<?xml version="1.0" encoding="utf-8"?>
<!-- Generator: Adobe Illustrator 22.1.0, SVG Export Plug-In . SVG Version: 6.00 Build 0)  -->
<svg version="1.1" id="Layer_1" xmlns="http://www.w3.org/2000/svg" xmlns:xlink="http://www.w3.org/1999/xlink" x="0px" y="0px"
	 viewBox="0 0 147 147" style="enable-background:new 0 0 147 147;" xml:space="preserve">
<style type="text/css">
	.st0{fill:#2FABFF;}
</style>
<path class="st0" d="M132.8,62.4H84.9h-7.4c-0.4,0-0.7,0.1-1,0.4L63.8,74.3c-1,0.9-2.5,0.2-2.5-1.1l0.1-9.2c0-0.8-0.7-1.5-1.5-1.5
	H49.2V19.1c0-1-0.8-1.9-1.9-1.9h-5.8c-1,0-1.9,0.8-1.9,1.9v43.3h-4.8V36.2c0-1-0.8-1.9-1.9-1.9h-5.8c-1,0-1.9,0.8-1.9,1.9v26.3h-7.4
	c-1.9,0-3.4,1.5-3.4,3.4v66.4c0,1.9,1.5,3.4,3.4,3.4h115c1.9,0,3.4-1.5,3.4-3.4V65.8C136.1,64,134.6,62.4,132.8,62.4z M109.8,120
	c0,1-0.8,1.9-1.9,1.9h-9.1c-1,0-1.9-0.8-1.9-1.9V79.7c0-1,0.8-1.9,1.9-1.9h9.1c1,0,1.9,0.8,1.9,1.9V120z M128.7,120
	c0,1-0.8,1.9-1.9,1.9h-9.1c-1,0-1.9-0.8-1.9-1.9V79.7c0-1,0.8-1.9,1.9-1.9h9.1c1,0,1.9,0.8,1.9,1.9V120z"/>
</svg>
