<?xml version="1.0" encoding="utf-8"?>
<!-- Generator: Adobe Illustrator 22.1.0, SVG Export Plug-In . SVG Version: 6.00 Build 0)  -->
<svg version="1.1" id="Layer_1" xmlns="http://www.w3.org/2000/svg" xmlns:xlink="http://www.w3.org/1999/xlink" x="0px" y="0px"
	 viewBox="0 0 50 50" style="enable-background:new 0 0 50 50;" xml:space="preserve">
<style type="text/css">
	.st0{fill:#2FABFF;}
	.st1{opacity:0.4;fill:#2FABFF;}
</style>
<path class="st0" d="M24.8,30.5c-4.2-0.3-7.6-3.8-7.6-8.2c0-4.5,3.7-8.2,8.2-8.2c0.7,0,1.4,0.1,2,0.2c1.4,0.4,2.7,1.1,3.7,2.1
	c1.5,1.5,2.5,3.6,2.5,5.9c0,0.8-0.1,1.6-0.4,2.3l6.3,5.9c0.8-1.3,1.4-2.8,1.8-4.3l4.3-0.7c0.9-0.2,1.6-1,1.6-1.9V21
	c0-0.9-0.7-1.7-1.6-1.9l-4.3-0.7c-0.3-1.3-0.8-2.5-1.4-3.7l2.8-3.4c0.6-0.7,0.6-1.8-0.1-2.5L41,6.9c-0.6-0.7-1.7-0.9-2.5-0.4
	l-3.7,2.3c-1.6-1.1-3.5-2-5.5-2.5L28.6,2c-0.2-0.9-1-1.6-1.9-1.6h-2.6c-0.9,0-1.7,0.7-1.9,1.6l-0.7,4.4c-1.6,0.4-3.2,1.1-4.6,1.9
	l-3.5-2.5c-0.8-0.5-1.8-0.5-2.5,0.2L9.1,7.8c-0.7,0.7-0.7,1.7-0.2,2.5l2.5,3.5c-0.9,1.4-1.5,2.9-1.9,4.6l-4.4,0.7
	c-0.9,0.2-1.6,1-1.6,1.9v2.6c0,0.9,0.7,1.7,1.6,1.9l4.4,0.7c0.3,1.3,0.8,2.6,1.5,3.8l-2.8,3.4c-0.6,0.7-0.6,1.8,0.1,2.5l1.7,1.9
	c0.6,0.7,1.7,0.8,2.5,0.4l3.8-2.4c1.6,1.1,3.4,1.9,5.3,2.4l0.7,4.4c0.1,0.9,1,1.6,1.9,1.6h2.6c0.9,0,1.7-0.7,1.9-1.6l0.7-4
	L24.8,30.5z"/>
<ellipse class="st1" cx="25.5" cy="39.8" rx="23.6" ry="5.5"/>
<path class="st0" d="M40.3,41.1c-3.2,0-5.8-1.2-6.3-1.4l-3-1.4l2.8-6.1l3,1.4c0.9,0.4,3.9,1.3,5.7,0.2l2.8-1.8l3.6,5.6L46,39.6
	C44.1,40.7,42.1,41.1,40.3,41.1z"/>
</svg>
