<?xml version="1.0" encoding="utf-8"?>
<!-- Generator: Adobe Illustrator 22.1.0, SVG Export Plug-In . SVG Version: 6.00 Build 0)  -->
<svg version="1.1" id="Layer_1" xmlns="http://www.w3.org/2000/svg" xmlns:xlink="http://www.w3.org/1999/xlink" x="0px" y="0px"
	 viewBox="0 0 50 50" style="enable-background:new 0 0 50 50;" xml:space="preserve">
<style type="text/css">
	.st0{fill:#FFA630;}
</style>
<path id="settings_6_" class="st0" d="M43,14.4l-4.4,0.7c-0.7-1.1-1.6-2.2-2.5-3.1l1.6-4.2c0.3-0.9,0-1.9-0.8-2.4L34.5,4
	c-0.8-0.5-1.9-0.3-2.5,0.4l-2.8,3.4c-1.9-0.6-4-0.8-6.1-0.6l-2.1-4c-0.4-0.8-1.4-1.2-2.3-0.9l-2.5,0.8c-0.9,0.3-1.5,1.2-1.3,2.1
	l0.7,4.5c-1.5,0.9-2.8,2-3.8,3.3l-4.2-1.3c-0.9-0.3-1.9,0.1-2.3,1L4,15.1C3.6,16,3.8,17,4.6,17.6l3.6,2.6c-0.4,1.6-0.5,3.3-0.4,5
	l-4,2.1c-0.8,0.4-1.2,1.4-0.9,2.3l0.8,2.5c0.3,0.9,1.2,1.5,2.2,1.3l4.5-0.7c0.7,1.2,1.6,2.3,2.6,3.2l-1.6,4.2
	c-0.3,0.9,0,1.9,0.8,2.4l2.3,1.3c0.8,0.5,1.9,0.3,2.5-0.4l2.9-3.5c1.9,0.5,3.9,0.7,5.9,0.6l2.1,4c0.4,0.8,1.4,1.2,2.3,0.9l2.5-0.8
	c0.9-0.3,1.5-1.2,1.3-2.2l-0.7-4.4c1.4-0.9,2.7-2,3.8-3.3l4.4,1.4c0.9,0.3,1.9-0.1,2.3-1l1.2-2.4c0.4-0.9,0.2-1.9-0.6-2.4l-3.7-2.7
	c0.4-1.6,0.5-3.3,0.4-5l4-2.1c0.8-0.4,1.2-1.4,0.9-2.3l-0.8-2.5C44.8,14.8,43.9,14.2,43,14.4z M27.1,31.9c-4.4,1.4-9.1-0.9-10.6-5.3
	c-1.4-4.4,0.9-9.1,5.3-10.6c4.4-1.4,9.1,0.9,10.6,5.3C33.8,25.7,31.5,30.4,27.1,31.9z"/>
</svg>
