<svg width="50" height="50" xmlns="http://www.w3.org/2000/svg">
 <style type="text/css">.st0{fill:#FFA630;}</style>

 <g>
  <title>background</title>
  <rect x="-1" y="-1" width="14.820488" height="14.820488" id="canvas_background" fill="none"/>
 </g>
 <g>
  <title>Layer 1</title>
  <style type="text/css">.st0{fill:#333333;}</style>
  <g id="svg_7" stroke="null" transform="rotate(-90.09243774414062 12.119829177856445,18.736928939819332) ">
   <path id="svg_5" class="st0" d="m22.56295,13.41685l-2.47708,0.39408c-0.39408,-0.61927 -0.90075,-1.23853 -1.40743,-1.74521l0.90076,-2.36448c0.16889,-0.50667 0,-1.06964 -0.45038,-1.35113l-1.35113,-0.78816c-0.45038,-0.28148 -1.06964,-0.16889 -1.40743,0.22519l-1.57632,1.9141c-1.06964,-0.33778 -2.25188,-0.45038 -3.43412,-0.33778l-1.18224,-2.25189c-0.22519,-0.45037 -0.78816,-0.67556 -1.29483,-0.50667l-1.40743,0.45038c-0.50668,0.16889 -0.84446,0.67556 -0.73186,1.18224l0.39408,2.53337c-0.84446,0.50667 -1.57632,1.12594 -2.13929,1.8578l-2.36448,-0.73186c-0.50668,-0.16889 -1.06965,0.0563 -1.29484,0.56297l-0.73186,1.35113c-0.22519,0.50668 -0.11259,1.06965 0.33778,1.40743l2.0267,1.46372c-0.22519,0.90076 -0.28149,1.85781 -0.22519,2.81486l-2.25188,1.18224c-0.45038,0.22519 -0.67557,0.78816 -0.50668,1.29483l0.45038,1.40743c0.16889,0.50667 0.67557,0.84446 1.23854,0.73186l2.53337,-0.39408c0.39408,0.67557 0.90075,1.29484 1.46372,1.80151l-0.90075,2.36448c-0.16889,0.50667 0,1.06964 0.45037,1.35113l1.29484,0.73186c0.45038,0.28149 1.06964,0.16889 1.40743,-0.22519l1.63261,-1.97039c1.06965,0.28148 2.19559,0.39408 3.32153,0.33778l1.18224,2.25188c0.22519,0.45038 0.78816,0.67557 1.29484,0.50668l1.40742,-0.45038c0.50668,-0.16889 0.84446,-0.67557 0.73187,-1.23854l-0.39408,-2.47707c0.78816,-0.50667 1.52002,-1.12594 2.13929,-1.8578l2.47707,0.78816c0.50667,0.16889 1.06964,-0.0563 1.29483,-0.56298l0.67557,-1.35113c0.22519,-0.50667 0.11259,-1.06964 -0.33779,-1.35113l-2.08299,-1.52002c0.22519,-0.90075 0.28149,-1.8578 0.22519,-2.81485l2.25188,-1.18224c0.45038,-0.22519 0.67557,-0.78816 0.50668,-1.29484l-0.45038,-1.40743c-0.22519,-0.50667 -0.73186,-0.84445 -1.23853,-0.73186zm-8.95124,9.85199c-2.47708,0.78817 -5.12304,-0.50667 -5.9675,-2.98374c-0.78816,-2.47708 0.50668,-5.12304 2.98375,-5.9675c2.47707,-0.78816 5.12303,0.50668 5.96749,2.98375c0.78816,2.47707 -0.50667,5.12304 -2.98374,5.96749z" stroke="null"/>
  </g>
  <g id="svg_9" transform="rotate(-13.235708236694336 36.57631301879882,13.302151679992685) " stroke="null">
   <path id="svg_8" class="st0" d="m47.4851,7.6974l-2.58753,0.41517c-0.41166,-0.6524 -0.94092,-1.30481 -1.4702,-1.83859l0.94092,-2.491c0.17642,-0.53379 0,-1.12688 -0.47046,-1.42343l-1.41138,-0.83033c-0.47046,-0.29655 -1.11734,-0.17793 -1.47018,0.23723l-1.64661,2.01653c-1.11734,-0.35586 -2.3523,-0.47448 -3.58726,-0.35586l-1.23495,-2.37238c-0.23523,-0.47448 -0.82331,-0.71171 -1.35257,-0.53379l-1.47019,0.47448c-0.52927,0.17793 -0.88211,0.71171 -0.7645,1.2455l0.41166,2.66893c-0.88212,0.53378 -1.64661,1.18619 -2.23469,1.95721l-2.46991,-0.77102c-0.52927,-0.17793 -1.11734,0.05931 -1.35257,0.59309l-0.7645,1.42343c-0.23523,0.53379 -0.11761,1.12688 0.35285,1.48274l2.11706,1.54205c-0.23523,0.94895 -0.29403,1.95721 -0.23523,2.96547l-2.35229,1.2455c-0.47046,0.23724 -0.70569,0.83033 -0.52927,1.36412l0.47046,1.48274c0.17642,0.53378 0.70569,0.88964 1.29376,0.77102l2.64634,-0.41516c0.41165,0.71171 0.94092,1.36411 1.52899,1.8979l-0.94092,2.491c-0.17642,0.53378 0,1.12688 0.47046,1.42343l1.35257,0.77102c0.47046,0.29655 1.11735,0.17793 1.47019,-0.23724l1.70542,-2.07583c1.11734,0.29655 2.29349,0.41517 3.46964,0.35586l1.23495,2.37238c0.23523,0.47447 0.82331,0.71171 1.35257,0.53378l1.47019,-0.47447c0.52927,-0.17793 0.88211,-0.71172 0.7645,-1.30481l-0.41166,-2.60962c0.82331,-0.53379 1.5878,-1.18619 2.23469,-1.95721l2.58752,0.83033c0.52927,0.17793 1.11735,-0.05931 1.35258,-0.5931l0.70569,-1.42342c0.23522,-0.53379 0.11761,-1.12689 -0.35285,-1.42343l-2.17588,-1.60136c0.23523,-0.94895 0.29404,-1.95721 0.23523,-2.96548l2.3523,-1.2455c0.47046,-0.23723 0.70569,-0.83033 0.52927,-1.36411l-0.47046,-1.48274c-0.23523,-0.53379 -0.7645,-0.88964 -1.29376,-0.77103l0.00001,0zm-9.3504,10.37917c-2.58753,0.83033 -5.35148,-0.53379 -6.23359,-3.1434c-0.8233,-2.60962 0.52927,-5.39717 3.1168,-6.28681c2.58753,-0.83034 5.35148,0.53378 6.23359,3.1434c0.8233,2.60962 -0.52927,5.39717 -3.1168,6.28681z" stroke="null"/>
  </g>
  <g id="svg_11" stroke="null" transform="rotate(16 28.967628479003917,36.780372619628906) ">
   <path id="svg_10" class="st0" d="m39.87641,31.17562l-2.58753,0.41517c-0.41165,-0.6524 -0.94092,-1.30481 -1.47019,-1.83859l0.94092,-2.491c0.17642,-0.53379 0,-1.12688 -0.47046,-1.42343l-1.41138,-0.83033c-0.47046,-0.29655 -1.11734,-0.17793 -1.47018,0.23723l-1.64661,2.01653c-1.11734,-0.35586 -2.3523,-0.47448 -3.58726,-0.35586l-1.23495,-2.37238c-0.23523,-0.47448 -0.82331,-0.71171 -1.35257,-0.53379l-1.47019,0.47448c-0.52927,0.17793 -0.88211,0.71171 -0.7645,1.2455l0.41166,2.66893c-0.88212,0.53378 -1.64661,1.18619 -2.23469,1.95721l-2.46991,-0.77102c-0.52927,-0.17793 -1.11734,0.05931 -1.35257,0.59309l-0.7645,1.42343c-0.23523,0.53379 -0.11761,1.12688 0.35285,1.48274l2.11706,1.54205c-0.23523,0.94895 -0.29403,1.95721 -0.23523,2.96547l-2.35229,1.2455c-0.47046,0.23724 -0.70569,0.83033 -0.52927,1.36412l0.47046,1.48274c0.17642,0.53378 0.70569,0.88964 1.29376,0.77102l2.64634,-0.41516c0.41165,0.71171 0.94092,1.36411 1.52899,1.8979l-0.94092,2.491c-0.17642,0.53378 0,1.12688 0.47046,1.42343l1.35257,0.77102c0.47046,0.29655 1.11735,0.17793 1.47019,-0.23724l1.70542,-2.07583c1.11734,0.29655 2.29349,0.41517 3.46964,0.35586l1.23495,2.37238c0.23523,0.47447 0.82331,0.71171 1.35257,0.53378l1.47019,-0.47447c0.52927,-0.17793 0.88211,-0.71172 0.7645,-1.30481l-0.41166,-2.60962c0.82331,-0.53379 1.5878,-1.18619 2.23469,-1.95721l2.58752,0.83033c0.52927,0.17793 1.11735,-0.05931 1.35258,-0.5931l0.70569,-1.42342c0.23522,-0.53379 0.11761,-1.12689 -0.35285,-1.42343l-2.17588,-1.60136c0.23523,-0.94895 0.29404,-1.95721 0.23523,-2.96548l2.3523,-1.2455c0.47046,-0.23723 0.70569,-0.83033 0.52927,-1.36411l-0.47046,-1.48274c-0.23523,-0.53379 -0.7645,-0.88964 -1.29376,-0.77103zm-9.35039,10.37917c-2.58753,0.83033 -5.35148,-0.53379 -6.23359,-3.1434c-0.8233,-2.60962 0.52927,-5.39717 3.1168,-6.28681c2.58753,-0.83034 5.35148,0.53378 6.23359,3.1434c0.8233,2.60962 -0.52927,5.39717 -3.1168,6.28681z" stroke="null"/>
  </g>
 </g>
</svg>