<svg width="50" height="50" xmlns="http://www.w3.org/2000/svg">
 <style type="text/css">.st0{fill:#FFA630;}</style>

 <g>
  <title>background</title>
  <rect fill="none" id="canvas_background" height="52" width="52" y="-1" x="-1"/>
 </g>
 <g>
  <title>Layer 1</title>
  <style transform="matrix(0.11111111773384952,0,0,0.11111111773384952,0,0) " type="text/css">.st0{fill:#FFA630;}</style>
  <g transform="rotate(-90.09243774414062 12.119829177856445,18.736928939819332) " stroke="null" id="svg_7">
   <path stroke="null" d="m22.562946,13.416851l-2.477073,0.39408c-0.39408,-0.619268 -0.900754,-1.238536 -1.407428,-1.74521l0.900754,-2.364479c0.168891,-0.506674 0,-1.069645 -0.450377,-1.351131l-1.351131,-0.78816c-0.450377,-0.281486 -1.069645,-0.168891 -1.407428,0.225188l-1.576319,1.914102c-1.069645,-0.337783 -2.251885,-0.450377 -3.434124,-0.337783l-1.182239,-2.251884c-0.225188,-0.450377 -0.78816,-0.675565 -1.294834,-0.506674l-1.407428,0.450377c-0.506674,0.168891 -0.844457,0.675565 -0.731862,1.182239l0.39408,2.53337c-0.844457,0.506674 -1.576319,1.125942 -2.13929,1.857805l-2.364479,-0.731862c-0.506674,-0.168891 -1.069645,0.056297 -1.294834,0.562971l-0.731862,1.351131c-0.225188,0.506674 -0.112594,1.069645 0.337783,1.407428l2.026696,1.463725c-0.225188,0.900754 -0.281486,1.857805 -0.225188,2.814856l-2.251885,1.182239c-0.450377,0.225188 -0.675565,0.78816 -0.506674,1.294834l0.450377,1.407428c0.168891,0.506674 0.675565,0.844457 1.238536,0.731862l2.53337,-0.39408c0.39408,0.675565 0.900754,1.294834 1.463725,1.801508l-0.900754,2.364479c-0.168891,0.506674 0,1.069645 0.450377,1.351131l1.294834,0.731862c0.450377,0.281486 1.069645,0.168891 1.407428,-0.225188l1.632616,-1.970399c1.069645,0.281486 2.195587,0.39408 3.32153,0.337783l1.182239,2.251884c0.225188,0.450377 0.78816,0.675565 1.294834,0.506674l1.407428,-0.450377c0.506674,-0.168891 0.844457,-0.675565 0.731862,-1.238536l-0.39408,-2.477073c0.78816,-0.506674 1.520022,-1.125942 2.13929,-1.857805l2.477073,0.78816c0.506674,0.168891 1.069645,-0.056297 1.294834,-0.562971l0.675565,-1.351131c0.225188,-0.506674 0.112594,-1.069645 -0.337783,-1.351131l-2.082993,-1.520022c0.225188,-0.900754 0.281486,-1.857805 0.225188,-2.814856l2.251885,-1.182239c0.450377,-0.225188 0.675565,-0.78816 0.506674,-1.294834l-0.450377,-1.407428c-0.225188,-0.506674 -0.731862,-0.844457 -1.238536,-0.731862zm-8.951241,9.851994c-2.477073,0.78816 -5.123037,-0.506674 -5.967494,-2.983747c-0.78816,-2.477073 0.506674,-5.123037 2.983747,-5.967494c2.477073,-0.78816 5.123037,0.506674 5.967494,2.983747c0.78816,2.477073 -0.506674,5.123037 -2.983747,5.967494z" class="st0" id="svg_5"/>
  </g>
  <g stroke="null" transform="rotate(-13.235708236694336 36.57631301879882,13.302151679992685) " id="svg_9">
   <path stroke="null" d="m47.485095,7.697401l-2.58753,0.41517c-0.41165,-0.6524 -0.94092,-1.30481 -1.47019,-1.83859l0.94092,-2.491c0.17642,-0.53379 0,-1.12688 -0.47046,-1.42343l-1.41138,-0.83033c-0.47046,-0.29655 -1.11734,-0.17793 -1.47018,0.23723l-1.64661,2.01653c-1.11734,-0.35586 -2.3523,-0.47448 -3.58726,-0.35586l-1.23495,-2.37238c-0.23523,-0.47448 -0.82331,-0.71171 -1.35257,-0.53379l-1.47019,0.47448c-0.52927,0.17793 -0.88211,0.71171 -0.7645,1.2455l0.41166,2.66893c-0.88212,0.53378 -1.64661,1.18619 -2.23469,1.95721l-2.46991,-0.77102c-0.52927,-0.17793 -1.11734,0.05931 -1.35257,0.59309l-0.7645,1.42343c-0.23523,0.53379 -0.11761,1.12688 0.35285,1.48274l2.11706,1.54205c-0.23523,0.94895 -0.29403,1.95721 -0.23523,2.96547l-2.35229,1.2455c-0.47046,0.23724 -0.70569,0.83033 -0.52927,1.36412l0.47046,1.48274c0.17642,0.53378 0.70569,0.88964 1.29376,0.77102l2.64634,-0.41516c0.41165,0.71171 0.94092,1.36411 1.52899,1.8979l-0.94092,2.491c-0.17642,0.53378 0,1.12688 0.47046,1.42343l1.35257,0.77102c0.47046,0.29655 1.11735,0.17793 1.47019,-0.23724l1.70542,-2.07583c1.11734,0.29655 2.29349,0.41517 3.46964,0.35586l1.23495,2.37238c0.23523,0.47447 0.82331,0.71171 1.35257,0.53378l1.47019,-0.47447c0.52927,-0.17793 0.88211,-0.71172 0.7645,-1.30481l-0.41166,-2.60962c0.82331,-0.53379 1.5878,-1.18619 2.23469,-1.95721l2.58752,0.83033c0.52927,0.17793 1.11735,-0.05931 1.35258,-0.5931l0.70569,-1.42342c0.23522,-0.53379 0.11761,-1.12689 -0.35285,-1.42343l-2.17588,-1.60136c0.23523,-0.94895 0.29404,-1.95721 0.23523,-2.96548l2.3523,-1.2455c0.47046,-0.23723 0.70569,-0.83033 0.52927,-1.36411l-0.47046,-1.48274c-0.23523,-0.53379 -0.7645,-0.88964 -1.29376,-0.77103zm-9.35039,10.37917c-2.58753,0.83033 -5.35148,-0.53379 -6.23359,-3.1434c-0.8233,-2.60962 0.52927,-5.39717 3.1168,-6.28681c2.58753,-0.83034 5.35148,0.53378 6.23359,3.1434c0.8233,2.60962 -0.52927,5.39717 -3.1168,6.28681z" class="st0" id="svg_8"/>
  </g>
  <g transform="rotate(16 28.967628479003917,36.780372619628906) " stroke="null" id="svg_11">
   <path stroke="null" d="m39.876412,31.175619l-2.58753,0.41517c-0.41165,-0.6524 -0.94092,-1.30481 -1.47019,-1.83859l0.94092,-2.491c0.17642,-0.53379 0,-1.12688 -0.47046,-1.42343l-1.41138,-0.83033c-0.47046,-0.29655 -1.11734,-0.17793 -1.47018,0.23723l-1.64661,2.01653c-1.11734,-0.35586 -2.3523,-0.47448 -3.58726,-0.35586l-1.23495,-2.37238c-0.23523,-0.47448 -0.82331,-0.71171 -1.35257,-0.53379l-1.47019,0.47448c-0.52927,0.17793 -0.88211,0.71171 -0.7645,1.2455l0.41166,2.66893c-0.88212,0.53378 -1.64661,1.18619 -2.23469,1.95721l-2.46991,-0.77102c-0.52927,-0.17793 -1.11734,0.05931 -1.35257,0.59309l-0.7645,1.42343c-0.23523,0.53379 -0.11761,1.12688 0.35285,1.48274l2.11706,1.54205c-0.23523,0.94895 -0.29403,1.95721 -0.23523,2.96547l-2.35229,1.2455c-0.47046,0.23724 -0.70569,0.83033 -0.52927,1.36412l0.47046,1.48274c0.17642,0.53378 0.70569,0.88964 1.29376,0.77102l2.64634,-0.41516c0.41165,0.71171 0.94092,1.36411 1.52899,1.8979l-0.94092,2.491c-0.17642,0.53378 0,1.12688 0.47046,1.42343l1.35257,0.77102c0.47046,0.29655 1.11735,0.17793 1.47019,-0.23724l1.70542,-2.07583c1.11734,0.29655 2.29349,0.41517 3.46964,0.35586l1.23495,2.37238c0.23523,0.47447 0.82331,0.71171 1.35257,0.53378l1.47019,-0.47447c0.52927,-0.17793 0.88211,-0.71172 0.7645,-1.30481l-0.41166,-2.60962c0.82331,-0.53379 1.5878,-1.18619 2.23469,-1.95721l2.58752,0.83033c0.52927,0.17793 1.11735,-0.05931 1.35258,-0.5931l0.70569,-1.42342c0.23522,-0.53379 0.11761,-1.12689 -0.35285,-1.42343l-2.17588,-1.60136c0.23523,-0.94895 0.29404,-1.95721 0.23523,-2.96548l2.3523,-1.2455c0.47046,-0.23723 0.70569,-0.83033 0.52927,-1.36411l-0.47046,-1.48274c-0.23523,-0.53379 -0.7645,-0.88964 -1.29376,-0.77103zm-9.35039,10.37917c-2.58753,0.83033 -5.35148,-0.53379 -6.23359,-3.1434c-0.8233,-2.60962 0.52927,-5.39717 3.1168,-6.28681c2.58753,-0.83034 5.35148,0.53378 6.23359,3.1434c0.8233,2.60962 -0.52927,5.39717 -3.1168,6.28681z" class="st0" id="svg_10"/>
  </g>
 </g>
</svg>