<svg id="Layer_1" data-name="Layer 1" xmlns="http://www.w3.org/2000/svg" viewBox="0 0 57.53 36.97"><defs><style>.cls-1{fill:#ffa630;}.cls-2{fill:#fff;opacity:0.6;}</style></defs><title>pig_empty_orange</title><path class="cls-1" d="M59.83,17.35H58.49a1.84,1.84,0,0,1-1.69-1.13,13.64,13.64,0,0,0-6.27-6.63,1.85,1.85,0,0,1-1-2C50.46,3,51.92,3.43,51.2,3.14S46,5.24,44.38,6.48a1.83,1.83,0,0,1-2.24,0C32.54-.84,19.16,3,17.32,3.43S11,4.87,6.09,12.81a12,12,0,0,0,.6,13.87,1.79,1.79,0,0,1,.38,1C7.31,31.63,9.21,36,10.15,38a1.85,1.85,0,0,0,1.67,1h4.27a1.84,1.84,0,0,0,1.84-2c0-.12,0-.24,0-.36a1.88,1.88,0,0,1,2.17-2,48.65,48.65,0,0,0,12.08.41,1.81,1.81,0,0,1,1.72.85l1.34,2.11a1.84,1.84,0,0,0,1.54.86l4.37.06A1.84,1.84,0,0,0,43,37.15a20.85,20.85,0,0,1,.23-2.93,1.84,1.84,0,0,1,1.47-1.55C52.57,31.12,60.8,23.9,60.8,23.9c.7-.26.86-2.83.89-4.67A1.85,1.85,0,0,0,59.83,17.35ZM34.6,6.26a.84.84,0,0,1-.78.56.78.78,0,0,1-.26,0c-8.06-2.66-12.63-.1-12.67-.07a.84.84,0,0,1-1.13-.3.83.83,0,0,1,.29-1.12c.21-.12,5.2-3,14-.07A.82.82,0,0,1,34.6,6.26ZM50.9,16.48a1.18,1.18,0,1,1,1.18-1.18A1.18,1.18,0,0,1,50.9,16.48Z" transform="translate(-4.16 -2.06)"/><path class="cls-2" d="M26.17,30C17.33,30,10.1,26.1,10.1,19.41s7.18-9.27,16-9.27S39,12.72,39,19.41C39,24.2,35,30,26.17,30Z" transform="translate(-4.16 -2.06)"/></svg>