<svg id="Layer_1" data-name="Layer 1" xmlns="http://www.w3.org/2000/svg" viewBox="0 0 58.58 45.53"><defs><style>.cls-1,.cls-3,.cls-4{fill:#5a5a5a;}.cls-2,.cls-5{fill:#fff;}.cls-2,.cls-3{opacity:0.6;}.cls-4{stroke:#fff;stroke-miterlimit:10;stroke-width:0.1px;}</style></defs><title>pig_max_dark</title><path class="cls-1" d="M60.19,17.38H58.85a1.86,1.86,0,0,1-1.7-1.13,13.59,13.59,0,0,0-6.28-6.64,1.85,1.85,0,0,1-1-2c.91-4.6,2.37-4.15,1.65-4.45s-5.23,2.1-6.83,3.35a1.85,1.85,0,0,1-2.25,0C32.84-.85,19.44,3,17.59,3.44S11.21,4.88,6.34,12.83A12,12,0,0,0,7,26.72a2,2,0,0,1,.38,1.05c.23,3.92,2.14,8.32,3.08,10.28a1.86,1.86,0,0,0,1.67,1.05h4.28a1.86,1.86,0,0,0,1.85-2c0-.12,0-.25,0-.37a1.86,1.86,0,0,1,2.17-2,48.2,48.2,0,0,0,12.1.4,1.85,1.85,0,0,1,1.73.86l1.34,2.11a1.84,1.84,0,0,0,1.54.86l4.38.06a1.83,1.83,0,0,0,1.88-1.84,21.08,21.08,0,0,1,.24-2.94A1.84,1.84,0,0,1,45,32.73c7.88-1.55,16.11-8.79,16.11-8.79.71-.26.87-2.83.9-4.68A1.85,1.85,0,0,0,60.19,17.38ZM34.9,6.26a.81.81,0,0,1-.78.57.73.73,0,0,1-.25,0c-8.08-2.66-12.66-.1-12.7-.07A.84.84,0,0,1,20,6.42a.82.82,0,0,1,.29-1.12c.21-.13,5.21-3,14.05-.08A.82.82,0,0,1,34.9,6.26ZM51.24,16.51a1.18,1.18,0,1,1,1.18-1.18A1.18,1.18,0,0,1,51.24,16.51Z" transform="translate(-3.46 -2.06)"/><path class="cls-2" d="M26.46,30.08c-8.86,0-16.1-3.93-16.1-10.63s7.19-9.29,16.05-9.29,12.86,2.58,12.86,9.29C39.27,24.25,35.33,30.08,26.46,30.08Z" transform="translate(-3.46 -2.06)"/><circle class="cls-3" cx="26.64" cy="22.96" r="2.79"/><circle class="cls-3" cx="31.48" cy="21.61" r="2.79"/><circle class="cls-3" cx="27.34" cy="20.07" r="2.79"/><circle class="cls-3" cx="32.93" cy="18.56" r="2.79"/><circle class="cls-3" cx="32.93" cy="15.12" r="2.79"/><circle class="cls-3" cx="18.57" cy="23.23" r="2.79"/><circle class="cls-3" cx="18.93" cy="20.44" r="2.79"/><circle class="cls-3" cx="14.5" cy="20.85" r="2.79"/><circle class="cls-3" cx="22.6" cy="18.56" r="2.79"/><circle class="cls-3" cx="22.87" cy="15.36" r="2.79"/><circle class="cls-3" cx="19.53" cy="15.72" r="2.79"/><circle class="cls-3" cx="15.08" cy="16.36" r="2.79"/><circle class="cls-3" cx="29.04" cy="13.5" r="2.79"/><circle class="cls-3" cx="25.9" cy="13.1" r="2.79"/><circle class="cls-3" cx="32.46" cy="11.41" r="2.79"/><circle class="cls-3" cx="9.69" cy="19.08" r="2.79"/><circle class="cls-3" cx="12.48" cy="16.29" r="2.79"/><circle class="cls-3" cx="26.64" cy="16.29" r="2.79"/><circle class="cls-3" cx="11.31" cy="21.61" r="2.79"/><circle class="cls-3" cx="17.87" cy="25.23" r="2.79"/><circle class="cls-3" cx="23.46" cy="26.02" r="2.79"/><circle class="cls-3" cx="28.69" cy="25.12" r="2.79"/><circle class="cls-3" cx="12.98" cy="24.94" r="2.79"/><circle class="cls-1" cx="30.13" cy="23.23" r="2.79"/><circle class="cls-4" cx="30.13" cy="23.23" r="2.53"/><path class="cls-5" d="M32.93,26h.57V24.53h-.44v-.17a1.41,1.41,0,0,0,.51-.15h.19V26h.52v.22H32.93Z" transform="translate(-3.46 -2.06)"/><circle class="cls-1" cx="29.43" cy="17.64" r="2.79"/><circle class="cls-4" cx="29.43" cy="17.64" r="2.53"/><path class="cls-5" d="M32.31,20.4h.57V18.94h-.45v-.17a1.31,1.31,0,0,0,.51-.14h.2V20.4h.51v.21H32.31Z" transform="translate(-3.46 -2.06)"/><circle class="cls-1" cx="22.6" cy="21.35" r="2.79"/><circle class="cls-4" cx="22.6" cy="21.35" r="2.53"/><path class="cls-5" d="M25.57,24.28h.57V22.82H25.7v-.17a1.41,1.41,0,0,0,.51-.15h.19v1.78h.52v.21H25.57Z" transform="translate(-3.46 -2.06)"/><circle class="cls-1" cx="25.4" cy="25.21" r="2.79"/><circle class="cls-4" cx="25.4" cy="25.21" r="2.53"/><path class="cls-1" d="M29.82,27.79a.88.88,0,0,1-.41.26.77.77,0,0,1-.68-.07,1,1,0,0,1-.38-.44l-.18.06-.05-.15.17-.05s0,0,0,0a.65.65,0,0,1,0-.13l-.17.06L28,27.13l.19-.07a1,1,0,0,1,.09-.57.81.81,0,0,1,.51-.44.91.91,0,0,1,.42,0v.22a.76.76,0,0,0-.36,0,.52.52,0,0,0-.34.29.73.73,0,0,0-.06.43l.83-.26,0,.15-.85.27,0,.12,0,.06.86-.28.05.15-.84.27a.67.67,0,0,0,.28.33.62.62,0,0,0,.48,0,.89.89,0,0,0,.33-.21Z" transform="translate(-3.46 -2.06)"/><circle class="cls-1" cx="25.39" cy="25.23" r="2.79"/><circle class="cls-4" cx="25.39" cy="25.23" r="2.53"/><path class="cls-5" d="M28.46,28.07,29,27.9l-.44-1.39-.42.14-.05-.16a1.34,1.34,0,0,0,.44-.3l.19-.06.53,1.69.49-.15.07.2-1.29.41Z" transform="translate(-3.46 -2.06)"/><circle class="cls-1" cx="25.9" cy="20.7" r="2.79"/><circle class="cls-4" cx="25.9" cy="20.7" r="2.53"/><path class="cls-5" d="M29,23.57l.55-.17L29.1,22l-.42.13L28.63,22a1.51,1.51,0,0,0,.44-.29l.18-.06.54,1.69.49-.16.06.21-1.28.41Z" transform="translate(-3.46 -2.06)"/><circle class="cls-1" cx="11.78" cy="21.81" r="2.79"/><circle class="cls-4" cx="11.78" cy="21.81" r="2.53"/><path class="cls-5" d="M14.85,24.72l.55-.17L15,23.16l-.42.14,0-.16a1.34,1.34,0,0,0,.44-.3l.19-.06.53,1.69.49-.15.07.2-1.29.41Z" transform="translate(-3.46 -2.06)"/><circle class="cls-1" cx="32.93" cy="18.82" r="2.79"/><circle class="cls-4" cx="32.93" cy="18.82" r="2.53"/><path class="cls-5" d="M36.08,21.76l.54-.18-.44-1.38-.42.13,0-.16a1.51,1.51,0,0,0,.44-.29l.18-.06.54,1.69.49-.16.07.2L36.14,22Z" transform="translate(-3.46 -2.06)"/><circle class="cls-1" cx="21.8" cy="16.29" r="2.79"/><circle class="cls-4" cx="21.8" cy="16.29" r="2.53"/><path class="cls-5" d="M24.94,19.28l.54-.18L25,17.72l-.42.13-.05-.16A1.51,1.51,0,0,0,25,17.4l.18-.06L25.73,19l.49-.16.07.2L25,19.48Z" transform="translate(-3.46 -2.06)"/><circle class="cls-1" cx="20.66" cy="25.21" r="2.79"/><circle class="cls-4" cx="20.66" cy="25.21" r="2.53"/><path class="cls-5" d="M23.46,28,24,28l.05-1.45-.44,0v-.17a1.47,1.47,0,0,0,.52-.12h.19L24.3,28l.51,0v.22l-1.34-.05Z" transform="translate(-3.46 -2.06)"/><circle class="cls-1" cx="26.25" cy="14.26" r="2.79"/><circle class="cls-4" cx="26.25" cy="14.26" r="2.53"/><path class="cls-5" d="M29.08,17l.57,0,.06-1.45-.44,0v-.17a1.27,1.27,0,0,0,.52-.13H30L29.91,17l.52,0v.22l-1.35-.05Z" transform="translate(-3.46 -2.06)"/><circle class="cls-1" cx="14.36" cy="17.05" r="2.79"/><circle class="cls-4" cx="14.36" cy="17.05" r="2.53"/><path class="cls-5" d="M17.21,19.91l.58,0,.05-1.46-.44,0v-.17a1.47,1.47,0,0,0,.52-.12h.19L18.05,20h.51v.22l-1.34-.05Z" transform="translate(-3.46 -2.06)"/><circle class="cls-1" cx="18.31" cy="20.17" r="2.79"/><circle class="cls-4" cx="18.31" cy="20.17" r="2.53"/><path class="cls-5" d="M21.14,22.92l.57,0,.06-1.45-.45,0V21.3a1.47,1.47,0,0,0,.51-.12H22L22,23l.51,0v.22l-1.35-.05Z" transform="translate(-3.46 -2.06)"/><circle class="cls-1" cx="15.78" cy="24.14" r="2.79"/><circle class="cls-4" cx="15.78" cy="24.14" r="2.53"/><path class="cls-5" d="M19.86,26.92l.12-.56-1.42-.31-.1.43-.16,0a1.44,1.44,0,0,0,0-.53l0-.18,1.73.38.11-.5.21,0L20.07,27Z" transform="translate(-3.46 -2.06)"/><ellipse class="cls-1" cx="47.4" cy="40.56" rx="3.52" ry="1.06"/><path class="cls-3" d="M47.34,42.61v.64s.29.9,3.52.9,3.52-.85,3.52-.85v-.69Z" transform="translate(-3.46 -2.06)"/><ellipse class="cls-1" cx="38.76" cy="38.69" rx="3.52" ry="1.06"/><path class="cls-3" d="M38.7,40.75v.64s.29.9,3.52.9,3.52-.85,3.52-.85v-.69Z" transform="translate(-3.46 -2.06)"/><ellipse class="cls-1" cx="4.65" cy="43.99" rx="3.52" ry="1.06"/><path class="cls-3" d="M4.59,46.05v.64s.29.9,3.52.9,3.53-.85,3.53-.85v-.69Z" transform="translate(-3.46 -2.06)"/><ellipse class="cls-1" cx="3.52" cy="38.45" rx="3.52" ry="1.06"/><path class="cls-3" d="M3.46,40.51v.64s.3.9,3.53.9,3.52-.85,3.52-.85v-.69Z" transform="translate(-3.46 -2.06)"/><ellipse class="cls-1" cx="9.28" cy="41.09" rx="3.52" ry="1.06"/><path class="cls-3" d="M9.22,43.15v.63s.29.9,3.52.9,3.52-.84,3.52-.84v-.69Z" transform="translate(-3.46 -2.06)"/></svg>