<svg id="Layer_1" data-name="Layer 1" xmlns="http://www.w3.org/2000/svg" viewBox="0 0 57.53 36.97"><defs><style>.cls-1,.cls-3,.cls-4{fill:#5a5a5a;}.cls-2,.cls-5{fill:#fff;}.cls-2,.cls-3{opacity:0.6;}.cls-4{stroke:#fff;stroke-miterlimit:10;stroke-width:0.1px;}</style></defs><title>pig_low_dark</title><path class="cls-1" d="M59.83,17.35H58.49a1.84,1.84,0,0,1-1.69-1.13,13.64,13.64,0,0,0-6.27-6.63,1.85,1.85,0,0,1-1-2C50.46,3,51.92,3.43,51.2,3.14S46,5.24,44.38,6.48a1.83,1.83,0,0,1-2.24,0C32.54-.84,19.16,3,17.32,3.43S11,4.87,6.09,12.81a12,12,0,0,0,.6,13.87,1.79,1.79,0,0,1,.38,1C7.31,31.63,9.21,36,10.15,38a1.85,1.85,0,0,0,1.67,1h4.27a1.84,1.84,0,0,0,1.84-2c0-.12,0-.24,0-.36a1.88,1.88,0,0,1,2.17-2,48.65,48.65,0,0,0,12.08.41,1.81,1.81,0,0,1,1.72.85l1.34,2.11a1.84,1.84,0,0,0,1.54.86l4.37.06A1.84,1.84,0,0,0,43,37.15a20.85,20.85,0,0,1,.23-2.93,1.84,1.84,0,0,1,1.47-1.55C52.57,31.12,60.8,23.9,60.8,23.9c.7-.26.86-2.83.89-4.67A1.85,1.85,0,0,0,59.83,17.35ZM34.6,6.26a.84.84,0,0,1-.78.56.78.78,0,0,1-.26,0c-8.06-2.66-12.63-.1-12.67-.07a.84.84,0,0,1-1.13-.3.83.83,0,0,1,.29-1.12c.21-.12,5.2-3,14-.07A.82.82,0,0,1,34.6,6.26ZM50.9,16.48a1.18,1.18,0,1,1,1.18-1.18A1.18,1.18,0,0,1,50.9,16.48Z" transform="translate(-4.16 -2.06)"/><path class="cls-2" d="M26.17,30C17.33,30,10.1,26.1,10.1,19.41s7.18-9.27,16-9.27S39,12.72,39,19.41C39,24.2,35,30,26.17,30Z" transform="translate(-4.16 -2.06)"/><circle class="cls-3" cx="25.65" cy="22.92" r="2.79"/><circle class="cls-3" cx="17.6" cy="23.18" r="2.79"/><circle class="cls-3" cx="16.9" cy="25.18" r="2.79"/><circle class="cls-3" cx="22.47" cy="25.97" r="2.79"/><circle class="cls-3" cx="27.7" cy="25.07" r="2.79"/><circle class="cls-3" cx="12.02" cy="24.9" r="2.79"/><circle class="cls-1" cx="29.14" cy="23.18" r="2.79"/><circle class="cls-4" cx="29.14" cy="23.18" r="2.52"/><path class="cls-5" d="M32.75,25.94h.57V24.48h-.45v-.17a1.29,1.29,0,0,0,.51-.15h.2v1.78h.51v.21H32.75Z" transform="translate(-4.16 -2.06)"/><circle class="cls-1" cx="21.62" cy="21.31" r="2.79"/><circle class="cls-4" cx="21.62" cy="21.31" r="2.52"/><path class="cls-5" d="M25.15,24.06h.57V22.61h-.45v-.17a1.29,1.29,0,0,0,.51-.15H26v1.77h.51v.22H25.15Z" transform="translate(-4.16 -2.06)"/><circle class="cls-1" cx="24.41" cy="25.16" r="2.79"/><circle class="cls-4" cx="24.41" cy="25.16" r="2.52"/><path class="cls-1" d="M29.52,27.74a.79.79,0,0,1-.4.26.77.77,0,0,1-.68-.07.92.92,0,0,1-.38-.44l-.18.06-.05-.15.17,0,0-.05,0-.13-.18,0,0-.15.19-.06a1,1,0,0,1,.09-.58.83.83,0,0,1,.5-.43,1,1,0,0,1,.43,0v.22a.76.76,0,0,0-.36,0,.55.55,0,0,0-.34.29.73.73,0,0,0,0,.43l.82-.26,0,.15-.85.27,0,.12,0,.06.86-.28,0,.15-.84.26a.72.72,0,0,0,.29.34.59.59,0,0,0,.47,0,.75.75,0,0,0,.33-.21Z" transform="translate(-4.16 -2.06)"/><circle class="cls-1" cx="24.41" cy="25.18" r="2.79"/><circle class="cls-4" cx="24.41" cy="25.18" r="2.52"/><path class="cls-5" d="M28.21,28.07l.54-.17-.44-1.39-.42.13-.05-.16a1.51,1.51,0,0,0,.44-.29l.18-.06L29,27.82l.49-.16.07.21-1.29.41Z" transform="translate(-4.16 -2.06)"/><circle class="cls-1" cx="19.68" cy="25.16" r="2.79"/><circle class="cls-4" cx="19.68" cy="25.16" r="2.52"/><path class="cls-5" d="M23.22,27.87l.57,0,.06-1.45-.45,0v-.17a1.47,1.47,0,0,0,.51-.12h.2l-.07,1.77.52,0v.22l-1.35-.05Z" transform="translate(-4.16 -2.06)"/><circle class="cls-1" cx="14.81" cy="24.1" r="2.79"/><circle class="cls-4" cx="14.81" cy="24.1" r="2.52"/><path class="cls-5" d="M19.52,26.89l.12-.56L18.22,26l-.1.43-.16,0a1.4,1.4,0,0,0,0-.53l0-.19,1.73.38.11-.5.21,0-.29,1.32Z" transform="translate(-4.16 -2.06)"/></svg>