<?xml version="1.0" encoding="utf-8"?>
<!-- Generator: Adobe Illustrator 22.1.0, SVG Export Plug-In . SVG Version: 6.00 Build 0)  -->
<svg version="1.1" id="Layer_1" xmlns="http://www.w3.org/2000/svg" xmlns:xlink="http://www.w3.org/1999/xlink" x="0px" y="0px"
	 viewBox="0 0 63.3 50" style="enable-background:new 0 0 63.3 50;" xml:space="preserve">
<style type="text/css">
	.st0{opacity:0.4;fill:#2FABFF;}
	.st1{fill:#2FABFF;}
</style>
<g>
	<ellipse class="st0" cx="29.1" cy="39.4" rx="23.2" ry="3.6"/>
	<path class="st1" d="M58.7,21.1c0,0-7.7-6.7-15-8.2c-0.7-0.1-1.3-0.7-1.4-1.4c-0.1-0.8-0.2-1.8-0.2-2.7c0-1-0.8-1.7-1.7-1.7
		l-4.1,0.1c-0.6,0-1.1,0.3-1.4,0.8l-1.2,2c-0.3,0.5-1,0.9-1.6,0.8c-2-0.2-6.6-0.4-11.3,0.4c-1.1,0.2-2.1-0.7-2-1.8
		c0-0.1,0-0.2,0-0.3c0.1-1-0.7-1.9-1.7-1.9h-4c-0.7,0-1.3,0.4-1.6,1c-0.9,1.8-2.7,5.9-2.9,9.6c0,0.4-0.1,0.7-0.4,1
		C7.2,20,3.9,25.2,7.7,31.5c4.5,7.4,8.7,8.4,10.5,8.7c1.7,0.4,14.2,4,23.1-2.8c0.6-0.5,1.5-0.5,2.1,0c1.5,1.2,5.7,3.4,6.3,3.1
		c0.7-0.3-0.7,0.1-1.5-4.1c-0.2-0.8,0.2-1.5,0.9-1.9c1.6-0.8,4.3-2.6,5.8-6.2c0.3-0.6,0.9-1,1.6-1h1.2c1,0,1.7-0.8,1.7-1.8
		C59.5,23.8,59.3,21.4,58.7,21.1z M33.8,38.5c-8.2,2.7-12.9,0-13.1-0.1c-0.4-0.2-0.5-0.7-0.3-1c0.2-0.4,0.7-0.5,1-0.3
		c0,0,4.3,2.4,11.8-0.1c0.1,0,0.2,0,0.2,0c0.3,0,0.6,0.2,0.7,0.5C34.4,38,34.2,38.4,33.8,38.5z M50.7,29.7c0.2,0.2,0.2,0.6,0,0.8
		c-0.1,0.1-0.3,0.2-0.4,0.2c-0.2,0-0.3-0.1-0.4-0.2l-1-1.1l-1,1.1c-0.1,0.1-0.3,0.2-0.4,0.2c-0.1,0-0.3-0.1-0.4-0.2
		c-0.2-0.2-0.2-0.6,0-0.8l1.1-1.2l-1.1-1.2c-0.2-0.2-0.2-0.6,0-0.8c0.2-0.2,0.6-0.2,0.8,0l1,1.1l1-1.1c0.2-0.2,0.6-0.2,0.8,0
		c0.2,0.2,0.2,0.6,0,0.8l-1.1,1.2L50.7,29.7z"/>
</g>
</svg>
