<svg id="Layer_1" data-name="Layer 1" xmlns="http://www.w3.org/2000/svg" viewBox="0 0 57.46 36.92"><defs><style>.cls-1,.cls-3{fill:#2fabff;}.cls-2,.cls-5{fill:#fff;}.cls-2,.cls-3{opacity:0.6;}.cls-4{fill:none;stroke:#fff;stroke-miterlimit:10;stroke-width:0.1px;}</style></defs><title>pig_middle_blue</title><path class="cls-1" d="M59.91,17.33H58.57a1.87,1.87,0,0,1-1.7-1.12,13.54,13.54,0,0,0-6.25-6.62,1.85,1.85,0,0,1-1-2C50.54,3,52,3.43,51.28,3.14s-5.21,2.09-6.81,3.33a1.82,1.82,0,0,1-2.23,0c-9.6-7.32-23-3.44-24.8-3.05S11.09,4.87,6.23,12.8a12,12,0,0,0,.6,13.85,1.86,1.86,0,0,1,.38,1c.23,3.9,2.14,8.29,3.08,10.25A1.84,1.84,0,0,0,12,39h4.26a1.86,1.86,0,0,0,1.85-2c0-.12,0-.24,0-.37a1.87,1.87,0,0,1,2.16-2,48.5,48.5,0,0,0,12.06.41,1.83,1.83,0,0,1,1.73.85L35.32,38a1.88,1.88,0,0,0,1.54.86l4.37.06a1.84,1.84,0,0,0,1.88-1.84,19.45,19.45,0,0,1,.23-2.93,1.83,1.83,0,0,1,1.46-1.55c7.86-1.55,16.07-8.76,16.07-8.76.7-.26.86-2.82.89-4.66A1.85,1.85,0,0,0,59.91,17.33ZM34.7,6.25a.82.82,0,0,1-.78.56.73.73,0,0,1-.25,0c-8-2.65-12.62-.09-12.66-.07a.82.82,0,0,1-.83-1.41c.2-.13,5.19-3,14-.08A.83.83,0,0,1,34.7,6.25ZM51,16.47a1.18,1.18,0,1,1,1.18-1.18A1.18,1.18,0,0,1,51,16.47Z" transform="translate(-4.3 -2.06)"/><path class="cls-2" d="M26.29,30c-8.84,0-16-3.92-16-10.6s7.16-9.26,16-9.26,12.81,2.58,12.81,9.26C39.05,24.18,35.13,30,26.29,30Z" transform="translate(-4.3 -2.06)"/><circle class="cls-3" cx="25.62" cy="22.89" r="2.78"/><circle class="cls-3" cx="30.45" cy="21.55" r="2.78"/><circle class="cls-3" cx="26.32" cy="20.01" r="2.78"/><circle class="cls-3" cx="31.89" cy="18.5" r="2.78"/><circle class="cls-3" cx="31.89" cy="15.07" r="2.78"/><circle class="cls-3" cx="17.57" cy="23.15" r="2.78"/><circle class="cls-3" cx="17.93" cy="20.37" r="2.78"/><circle class="cls-3" cx="13.52" cy="20.79" r="2.78"/><circle class="cls-3" cx="21.59" cy="18.5" r="2.78"/><circle class="cls-3" cx="25.62" cy="16.24" r="2.78"/><circle class="cls-3" cx="10.34" cy="21.55" r="2.78"/><circle class="cls-3" cx="16.88" cy="25.15" r="2.78"/><circle class="cls-3" cx="22.44" cy="25.94" r="2.78"/><circle class="cls-3" cx="27.66" cy="25.04" r="2.78"/><circle class="cls-3" cx="12.01" cy="24.87" r="2.78"/><circle class="cls-1" cx="29.1" cy="23.15" r="2.78"/><circle class="cls-4" cx="29.1" cy="23.15" r="2.52"/><path class="cls-5" d="M32.77,25.91h.57V24.45H32.9v-.17a1.67,1.67,0,0,0,.51-.14h.19v1.77h.52v.21H32.77Z" transform="translate(-4.3 -2.06)"/><circle class="cls-1" cx="28.4" cy="17.59" r="2.78"/><circle class="cls-4" cx="28.4" cy="17.59" r="2.52"/><path class="cls-5" d="M32.07,20.34h.57V18.88H32.2v-.16a1.64,1.64,0,0,0,.51-.15h.19v1.77h.52v.22H32.07Z" transform="translate(-4.3 -2.06)"/><circle class="cls-1" cx="21.59" cy="21.28" r="2.78"/><circle class="cls-4" cx="21.59" cy="21.28" r="2.52"/><path class="cls-5" d="M25.26,24h.58V22.58h-.45v-.17a1.41,1.41,0,0,0,.51-.15h.19V24h.52v.22H25.26Z" transform="translate(-4.3 -2.06)"/><circle class="cls-1" cx="24.38" cy="25.13" r="2.78"/><circle class="cls-4" cx="24.38" cy="25.13" r="2.52"/><path class="cls-5" d="M29.63,27.7a.88.88,0,0,1-.41.26.77.77,0,0,1-.68-.07,1,1,0,0,1-.38-.44l-.18.06-.05-.15.17-.05v0a.65.65,0,0,1,0-.13l-.17.05L27.83,27,28,27a1,1,0,0,1,.09-.58.85.85,0,0,1,.51-.43.91.91,0,0,1,.42,0v.22a.76.76,0,0,0-.36,0,.52.52,0,0,0-.34.29.73.73,0,0,0-.06.43l.83-.26,0,.15-.85.27s0,.08,0,.12l0,.06.86-.28.05.15-.84.27a.67.67,0,0,0,.28.33.62.62,0,0,0,.48,0,.89.89,0,0,0,.33-.21Z" transform="translate(-4.3 -2.06)"/><circle class="cls-1" cx="24.38" cy="25.15" r="2.78"/><circle class="cls-4" cx="24.38" cy="25.15" r="2.52"/><path class="cls-5" d="M28.31,28.08l.54-.17-.44-1.39-.42.14,0-.16a1.34,1.34,0,0,0,.44-.3l.18-.06.54,1.69.49-.15.07.2-1.29.41Z" transform="translate(-4.3 -2.06)"/><circle class="cls-1" cx="24.88" cy="20.63" r="2.78"/><circle class="cls-4" cx="24.88" cy="20.63" r="2.52"/><path class="cls-5" d="M28.81,23.47l.54-.18-.44-1.39-.42.14,0-.16a1.51,1.51,0,0,0,.44-.29l.18-.06.54,1.69.49-.16.07.2-1.29.41Z" transform="translate(-4.3 -2.06)"/><circle class="cls-1" cx="31.89" cy="18.76" r="2.78"/><circle class="cls-4" cx="31.89" cy="18.76" r="2.52"/><path class="cls-5" d="M35.91,21.76l.55-.18L36,20.19l-.43.14-.05-.16a1.59,1.59,0,0,0,.45-.29l.18-.06.54,1.69.49-.16.06.2L36,22Z" transform="translate(-4.3 -2.06)"/><circle class="cls-1" cx="19.66" cy="25.13" r="2.78"/><circle class="cls-4" cx="19.66" cy="25.13" r="2.52"/><path class="cls-5" d="M23.44,27.9l.57,0,.06-1.46h-.44v-.17a1.27,1.27,0,0,0,.52-.13h.19l-.07,1.77.52,0v.21l-1.35-.05Z" transform="translate(-4.3 -2.06)"/><circle class="cls-1" cx="17.31" cy="20.11" r="2.78"/><circle class="cls-4" cx="17.31" cy="20.11" r="2.52"/><path class="cls-5" d="M21,22.88l.57,0,.06-1.46h-.45v-.17a1.31,1.31,0,0,0,.52-.13h.19l-.07,1.77.52,0v.21L21,23.09Z" transform="translate(-4.3 -2.06)"/><circle class="cls-1" cx="14.79" cy="24.07" r="2.78"/><circle class="cls-4" cx="14.79" cy="24.07" r="2.52"/><path class="cls-5" d="M19.49,26.83l.12-.56L18.19,26l-.1.43-.16,0a1.44,1.44,0,0,0,0-.53l0-.18,1.73.38.11-.5.21,0-.29,1.32Z" transform="translate(-4.3 -2.06)"/></svg>