<?xml version="1.0" encoding="utf-8"?>
<!-- Generator: Adobe Illustrator 22.1.0, SVG Export Plug-In . SVG Version: 6.00 Build 0)  -->
<svg version="1.1" id="Layer_1" xmlns="http://www.w3.org/2000/svg" xmlns:xlink="http://www.w3.org/1999/xlink" x="0px" y="0px"
	 viewBox="0 0 134 145" style="enable-background:new 0 0 134 145;" xml:space="preserve">
<style type="text/css">
	.st0{fill:#CCCCCC;}
	.st1{fill:none;stroke:#CCCCCC;stroke-linecap:round;stroke-miterlimit:10;}
	.st2{fill:#2FABFF;fill-opacity:0.8;}
	.st3{fill:#2FABFF;}
	.st4{fill:#2FABFF;fill-opacity:0.6;}
	.st5{fill:#2FABFF;fill-opacity:0.9;}
	.st6{fill:#2FABFF;fill-opacity:0.7;}
	.st7{fill:#FFA630;}
	.st8{fill:#FFA630;fill-opacity:0.7;}
</style>
<g>
	<path class="st0" d="M68.8,136.9h-3.6c-1.5,0-2.8-1.3-2.8-2.8V8.8c0-1.5,1.3-2.8,2.8-2.8l3.6,0c1.5,0,2.8,1.3,2.8,2.8v125.4
		C71.6,135.7,70.3,136.9,68.8,136.9z"/>
	<path class="st0" d="M71.4,136.9h-9.6c-4,0-7.3-3.3-7.3-7.3v-15.8c0-4,3.3-7.3,7.3-7.3h9.6c4,0,7.3,3.3,7.3,7.3v15.8
		C78.7,133.6,75.4,136.9,71.4,136.9z"/>
	<path class="st0" d="M65.6,122.4L48.6,137c-0.7,0.6-0.2,1.7,0.8,1.7h34.2c1,0,1.5-1.1,0.8-1.7l-17.3-14.6
		C66.7,122,66,122,65.6,122.4z"/>
	<path class="st0" d="M114.2,45.6l-96-32.6c-0.7-0.2-1.1-1-0.9-1.8l0.6-1.7c0.2-0.7,1-1.1,1.8-0.9l96,32.6c0.7,0.2,1.1,1,0.9,1.8
		l-0.6,1.7C115.8,45.5,115,45.9,114.2,45.6z"/>
	<line class="st1" x1="21.6" y1="12.7" x2="5.6" y2="73"/>
	<line class="st1" x1="23.5" y1="12.7" x2="39.5" y2="73"/>
	<g>
		<circle class="st2" cx="100.1" cy="100.4" r="3.5"/>
		<circle class="st3" cx="104.3" cy="101.2" r="3.5"/>
		<circle class="st4" cx="104.3" cy="97.7" r="3.5"/>
		<circle class="st5" cx="109.3" cy="102.1" r="3.5"/>
		<circle class="st6" cx="109" cy="97.7" r="3.5"/>
		<circle class="st3" cx="113.6" cy="101.2" r="3.5"/>
		<circle class="st3" cx="113.1" cy="97.4" r="3.5"/>
		<circle class="st3" cx="110.2" cy="94.6" r="3.5"/>
		<circle class="st3" cx="113.8" cy="94.2" r="3.5"/>
		<circle class="st6" cx="118.2" cy="100.9" r="3.5"/>
		<circle class="st6" cx="118.2" cy="98" r="3.5"/>
		<circle class="st3" cx="122.4" cy="101.2" r="3.5"/>
	</g>
	<g>
		<circle class="st7" cx="18.5" cy="72.1" r="3.5"/>
		<circle class="st8" cx="23" cy="71.8" r="3.5"/>
		<circle class="st7" cx="27.3" cy="72.1" r="3.5"/>
	</g>
	<path class="st0" d="M41,73H4.8c-0.6,0-0.8,0.7-0.3,1c3.6,2.4,12.8,8,19,8c6.3,0,14.6-5.7,17.8-8C41.8,73.7,41.6,73,41,73z"/>
	<line class="st1" x1="109.7" y1="41.8" x2="93.8" y2="102.1"/>
	<line class="st1" x1="111.7" y1="41.8" x2="127.7" y2="102.1"/>
	<path class="st0" d="M129.2,102.1H93c-0.6,0-0.8,0.7-0.3,1c3.6,2.4,12.8,8,19,8c6.3,0,14.6-5.7,17.8-8
		C130,102.8,129.8,102.1,129.2,102.1z"/>
</g>
</svg>
