<?xml version="1.0" encoding="utf-8"?>
<!-- Generator: Adobe Illustrator 22.1.0, SVG Export Plug-In . SVG Version: 6.00 Build 0)  -->
<svg version="1.1" id="Layer_1" xmlns="http://www.w3.org/2000/svg" xmlns:xlink="http://www.w3.org/1999/xlink" x="0px" y="0px"
	 viewBox="0 0 134 145" style="enable-background:new 0 0 134 145;" xml:space="preserve">
<style type="text/css">
	.st0{fill:#CCCCCC;}
	.st1{fill:none;stroke:#CCCCCC;stroke-linecap:round;stroke-miterlimit:10;}
	.st2{fill:#FFA630;fill-opacity:0.8;}
	.st3{fill:#FFA630;}
	.st4{fill:#FFA630;fill-opacity:0.6;}
	.st5{fill:#FFA630;fill-opacity:0.9;}
	.st6{fill:#FFA630;fill-opacity:0.7;}
	.st7{fill:#2FABFF;}
	.st8{fill:#2FABFF;fill-opacity:0.7;}
</style>
<g>
	<path class="st0" d="M68.6,136.6H65c-1.5,0-2.8-1.3-2.8-2.8V8.8C62.2,7.3,63.4,6,65,6h3.6c1.5,0,2.8,1.3,2.8,2.8v125
		C71.4,135.4,70.1,136.6,68.6,136.6z"/>
	<path class="st0" d="M71.2,136.6h-9.5c-4,0-7.3-3.3-7.3-7.3v-15.7c0-4,3.3-7.3,7.3-7.3h9.5c4,0,7.3,3.3,7.3,7.3v15.7
		C78.5,133.3,75.2,136.6,71.2,136.6z"/>
	<path class="st0" d="M65.4,122.1l-16.9,14.5c-0.7,0.6-0.2,1.7,0.8,1.7h34.2c1,0,1.5-1.1,0.8-1.7L67,122.1
		C66.6,121.7,65.8,121.7,65.4,122.1z"/>
	<path class="st0" d="M115.4,12.9L19.7,45.7c-0.7,0.2-1.5-0.1-1.8-0.9l-0.6-1.7c-0.2-0.7,0.1-1.5,0.9-1.8l95.7-32.9
		c0.7-0.2,1.5,0.1,1.8,0.9l0.6,1.7C116.5,11.8,116.1,12.6,115.4,12.9z"/>
	<line class="st1" x1="21.5" y1="43.6" x2="5.6" y2="103.8"/>
	<line class="st1" x1="23.5" y1="43.6" x2="39.4" y2="103.8"/>
	<g>
		<circle class="st2" cx="11.6" cy="102.1" r="3.5"/>
		<circle class="st3" cx="15.8" cy="102.9" r="3.5"/>
		<circle class="st4" cx="15.8" cy="99.4" r="3.5"/>
		<circle class="st5" cx="20.8" cy="103.8" r="3.5"/>
		<circle class="st6" cx="20.5" cy="99.4" r="3.5"/>
		<circle class="st3" cx="25.1" cy="102.9" r="3.5"/>
		<circle class="st3" cx="24.6" cy="99.2" r="3.5"/>
		<circle class="st3" cx="21.7" cy="96.3" r="3.5"/>
		<circle class="st3" cx="25.3" cy="96" r="3.5"/>
		<circle class="st6" cx="29.6" cy="102.6" r="3.5"/>
		<circle class="st6" cx="29.6" cy="99.8" r="3.5"/>
		<circle class="st3" cx="33.9" cy="102.9" r="3.5"/>
	</g>
	<g>
		<circle class="st7" cx="106.4" cy="71.4" r="3.5"/>
		<circle class="st8" cx="111" cy="71.1" r="3.5"/>
		<circle class="st7" cx="115.2" cy="71.4" r="3.5"/>
	</g>
	<path class="st0" d="M40.9,103.8H4.8c-0.6,0-0.8,0.7-0.3,1c3.6,2.4,12.7,8,19,8s14.6-5.6,17.8-8C41.7,104.5,41.5,103.8,40.9,103.8z
		"/>
	<line class="st1" x1="109.5" y1="12.1" x2="93.5" y2="72.3"/>
	<line class="st1" x1="111.4" y1="12.1" x2="127.4" y2="72.3"/>
	<path class="st0" d="M128.9,72.3H92.8c-0.6,0-0.8,0.7-0.3,1c3.6,2.4,12.7,8,19,8s14.6-5.6,17.8-8C129.7,73,129.4,72.3,128.9,72.3z"
		/>
</g>
</svg>
