<?xml version="1.0" encoding="utf-8"?>
<!-- Generator: Adobe Illustrator 22.1.0, SVG Export Plug-In . SVG Version: 6.00 Build 0)  -->
<svg version="1.1" id="Layer_1" xmlns="http://www.w3.org/2000/svg" xmlns:xlink="http://www.w3.org/1999/xlink" x="0px" y="0px"
	 viewBox="0 0 134 145" style="enable-background:new 0 0 134 145;" xml:space="preserve">
<style type="text/css">
	.st0{fill:#CCCCCC;}
	.st1{fill:none;stroke:#CCCCCC;stroke-linecap:round;stroke-miterlimit:10;}
	.st2{fill:#FFA630;fill-opacity:0.8;}
	.st3{fill:#FFA630;}
	.st4{fill:#FFA630;fill-opacity:0.6;}
	.st5{fill:#FFA630;fill-opacity:0.9;}
	.st6{fill:#FFA630;fill-opacity:0.7;}
	.st7{fill:#2FABFF;fill-opacity:0.8;}
	.st8{fill:#2FABFF;}
	.st9{fill:#2FABFF;fill-opacity:0.6;}
	.st10{fill:#2FABFF;fill-opacity:0.9;}
	.st11{fill:#2FABFF;fill-opacity:0.7;}
</style>
<g>
	<path class="st0" d="M68.6,136.7H65c-1.5,0-2.8-1.3-2.8-2.8V8.8C62.2,7.3,63.5,6,65,6h3.6c1.5,0,2.8,1.3,2.8,2.8v125.1
		C71.4,135.4,70.2,136.7,68.6,136.7z"/>
	<path class="st0" d="M71.2,136.7h-9.5c-4,0-7.3-3.3-7.3-7.3v-15.8c0-4,3.3-7.3,7.3-7.3h9.5c4,0,7.3,3.3,7.3,7.3v15.8
		C78.5,133.4,75.2,136.7,71.2,136.7z"/>
	<path class="st0" d="M65.4,122.2l-16.9,14.5c-0.7,0.6-0.2,1.7,0.8,1.7h34.2c1,0,1.5-1.1,0.8-1.7L67,122.2
		C66.6,121.8,65.9,121.8,65.4,122.2z"/>
	<path class="st0" d="M117.4,29.4H16.2c-0.8,0-1.4-0.6-1.4-1.4v-1.8c0-0.8,0.6-1.4,1.4-1.4h101.2c0.8,0,1.4,0.6,1.4,1.4V28
		C118.8,28.8,118.2,29.4,117.4,29.4z"/>
	<line class="st1" x1="21.5" y1="27.1" x2="5.6" y2="87.4"/>
	<line class="st1" x1="23.5" y1="27.1" x2="39.4" y2="87.4"/>
	<g>
		<circle class="st2" cx="11.6" cy="85.6" r="3.5"/>
		<circle class="st3" cx="15.8" cy="86.4" r="3.5"/>
		<circle class="st4" cx="15.8" cy="83" r="3.5"/>
		<circle class="st5" cx="20.8" cy="87.3" r="3.5"/>
		<circle class="st6" cx="20.5" cy="83" r="3.5"/>
		<circle class="st3" cx="25.1" cy="86.4" r="3.5"/>
		<circle class="st3" cx="24.6" cy="82.7" r="3.5"/>
		<circle class="st3" cx="21.7" cy="79.8" r="3.5"/>
		<circle class="st3" cx="25.3" cy="79.5" r="3.5"/>
		<circle class="st6" cx="29.6" cy="86.2" r="3.5"/>
		<circle class="st6" cx="29.6" cy="83.3" r="3.5"/>
		<circle class="st3" cx="33.9" cy="86.4" r="3.5"/>
	</g>
	<g>
		<circle class="st7" cx="99.9" cy="85.6" r="3.5"/>
		<circle class="st8" cx="104.1" cy="86.4" r="3.5"/>
		<circle class="st9" cx="104.1" cy="83" r="3.5"/>
		<circle class="st10" cx="109.1" cy="87.3" r="3.5"/>
		<circle class="st11" cx="108.8" cy="83" r="3.5"/>
		<circle class="st8" cx="113.4" cy="86.4" r="3.5"/>
		<circle class="st8" cx="112.9" cy="82.7" r="3.5"/>
		<circle class="st8" cx="110" cy="79.8" r="3.5"/>
		<circle class="st8" cx="113.6" cy="79.5" r="3.5"/>
		<circle class="st11" cx="117.9" cy="86.2" r="3.5"/>
		<circle class="st11" cx="117.9" cy="83.3" r="3.5"/>
		<circle class="st8" cx="122.2" cy="86.4" r="3.5"/>
	</g>
	<path class="st0" d="M40.9,87.4H4.8c-0.6,0-0.8,0.7-0.3,1c3.6,2.4,12.7,8,19,8s14.6-5.6,17.8-8C41.7,88.1,41.5,87.4,40.9,87.4z"/>
	<line class="st1" x1="109.5" y1="27.1" x2="93.6" y2="87.4"/>
	<line class="st1" x1="111.5" y1="27.1" x2="127.4" y2="87.4"/>
	<path class="st0" d="M129,87.4H92.8c-0.6,0-0.8,0.7-0.3,1c3.6,2.4,12.7,8,19,8s14.6-5.6,17.8-8C129.7,88.1,129.5,87.4,129,87.4z"/>
</g>
</svg>
