<?xml version="1.0" encoding="UTF-8"?>
<svg width="333px" height="72px" viewBox="0 0 333 72" version="1.1" xmlns="http://www.w3.org/2000/svg" xmlns:xlink="http://www.w3.org/1999/xlink">
    <!-- Generator: Sketch 42 (36781) - http://www.bohemiancoding.com/sketch -->
    <title>Crediwire - black 01a</title>
    <desc>Created with Sketch.</desc>
    <defs></defs>
    <g id="Logo" stroke="none" stroke-width="1" fill="none" fill-rule="evenodd">
        <g id="Crediwire---black" transform="translate(-56.000000, -12.000000)">
            <g id="Crediwire---black-01a" transform="translate(56.000000, 12.000000)">
                <rect id="Line" fill="#3B8ECC" x="51" y="66" width="228" height="6" rx="3"></rect>
                <path d="M11.4706913,43.4625 C13.9851831,45.9875126 17.4976421,47.25 22.0081738,47.25 C26.5705506,47.25 29.9404375,46.3000095 32.1179355,44.4 C34.2954336,42.4999905 35.7470772,40.050015 36.4729099,37.05 C36.5766002,36.5499975 36.8228612,36.1500015 37.2117001,35.85 C37.6005391,35.5499985 38.0282555,35.4 38.4948622,35.4 L42.0721625,35.4 C42.5387693,35.4 42.9405635,35.5624984 43.2775572,35.8875 C43.614551,36.2125016 43.7830453,36.5999978 43.7830453,37.05 C43.6793549,39.5000123 42.8498443,42.0374869 41.2944886,44.6625 C39.7391328,47.2875131 37.3413287,49.499991 34.1010042,51.3 C30.8606797,53.100009 26.8297766,54 22.0081738,54 C17.6531777,54 13.8426132,53.1250088 10.5763662,51.375 C7.31011912,49.6249913 4.78270395,47.2125154 2.99404484,44.1375 C1.20538573,41.0624846 0.233302973,37.5750195 0.0777673984,33.675 C0.0259222069,32.1749925 0,29.9500148 0,27 C0,24.0499853 0.0259222069,21.8250075 0.0777673984,20.325 C0.233302973,16.4249805 1.20538573,12.9375154 2.99404484,9.8625 C4.78270395,6.78748463 7.31011912,4.37500875 10.5763662,2.625 C13.8426132,0.87499125 17.6531777,0 22.0081738,0 C26.8297766,0 30.8606797,0.899991 34.1010042,2.7 C37.3413287,4.500009 39.7391328,6.71248687 41.2944886,9.3375 C42.8498443,11.9625131 43.6793549,14.4999878 43.7830453,16.95 C43.7830453,17.4000023 43.614551,17.7874984 43.2775572,18.1125 C42.9405635,18.4375016 42.5387693,18.6 42.0721625,18.6 L38.4948622,18.6 C38.0282555,18.6 37.6005391,18.4500015 37.2117001,18.15 C36.8228612,17.8499985 36.5766002,17.4500025 36.4729099,16.95 C35.7470772,13.949985 34.2954336,11.5000095 32.1179355,9.6 C29.9404375,7.6999905 26.5705506,6.75 22.0081738,6.75 C17.4976421,6.75 13.9851831,8.01248738 11.4706913,10.5375 C8.95619948,13.0625126 7.62120582,16.4499788 7.46567025,20.7 C7.41382506,22.2000075 7.38790285,24.2999865 7.38790285,27 C7.38790285,29.7000135 7.41382506,31.7999925 7.46567025,33.3 C7.62120582,37.5500213 8.95619948,40.9374874 11.4706913,43.4625 Z M75.1233069,14.85 C75.5380684,15.250002 75.7454461,15.7249973 75.7454461,16.275 L75.7454461,18.675 C75.7454461,19.2250028 75.5380684,19.699998 75.1233069,20.1 C74.7085453,20.500002 74.2160234,20.7 73.6457263,20.7 L69.1352172,20.7 C66.2318865,20.7 64.0155378,21.4374926 62.4861046,22.9125 C60.9566715,24.3875074 60.1919664,26.524986 60.1919664,29.325 L60.1919664,51.225 C60.1919664,51.7750028 59.9845887,52.249998 59.5698272,52.65 C59.1550657,53.050002 58.6625437,53.25 58.0922466,53.25 L55.2148529,53.25 C54.6445558,53.25 54.1520338,53.050002 53.7372723,52.65 C53.3225108,52.249998 53.1151331,51.7750028 53.1151331,51.225 L53.1151331,16.275 C53.1151331,15.7249973 53.3225108,15.250002 53.7372723,14.85 C54.1520338,14.449998 54.6445558,14.25 55.2148529,14.25 L58.0922466,14.25 C58.6625437,14.25 59.1550657,14.449998 59.5698272,14.85 C59.9845887,15.250002 60.1919664,15.7249973 60.1919664,16.275 L60.1919664,18.6 C61.2288702,17.0999925 62.4731361,16.0000035 63.9248015,15.3 C65.3764669,14.5999965 67.268788,14.25 69.6018216,14.25 L73.6457263,14.25 C74.2160234,14.25 74.7085453,14.449998 75.1233069,14.85 Z M110.740775,18.6 C113.955177,22.000017 115.562354,26.6249708 115.562354,32.475 L115.562354,34.5 C115.562354,35.0500028 115.354976,35.524998 114.940215,35.925 C114.525453,36.325002 114.032931,36.525 113.462634,36.525 L86.7106492,36.525 L86.7106492,36.975 C86.8143396,40.2750165 87.864189,42.8624906 89.8602289,44.7375 C91.8562687,46.6125094 94.4355283,47.55 97.598085,47.55 C100.190345,47.55 102.199316,47.2250033 103.625058,46.575 C105.050801,45.9249968 106.33395,45.000006 107.474545,43.8 C107.889306,43.399998 108.265178,43.1250008 108.602172,42.975 C108.939166,42.8249993 109.392804,42.75 109.963101,42.75 L112.296123,42.75 C112.918266,42.75 113.43671,42.949998 113.851471,43.35 C114.266233,43.750002 114.447688,44.2249973 114.395843,44.775 C114.188462,46.1250068 113.423757,47.5124929 112.101705,48.9375 C110.779652,50.3625071 108.887331,51.5624951 106.424685,52.5375 C103.962038,53.5125049 101.019868,54 97.598085,54 C94.2799928,54 91.3248612,53.2625074 88.7326016,51.7875 C86.140342,50.3124926 84.0795266,48.275013 82.5500934,45.675 C81.0206603,43.074987 80.1004219,40.1500163 79.7893508,36.9 C79.6856604,35.3999925 79.633816,34.250004 79.633816,33.45 C79.633816,32.649996 79.6856604,31.5000075 79.7893508,30 C80.1004219,26.8999845 81.0206603,24.1000125 82.5500934,21.6 C84.0795266,19.0999875 86.1273809,17.1250073 88.6937179,15.675 C91.2600549,14.2249928 94.2281476,13.5 97.598085,13.5 C103.14552,13.5 107.526373,15.199983 110.740775,18.6 Z M108.563288,30.225 L108.563288,30 C108.563288,26.9499848 107.565283,24.5125091 105.569243,22.6875 C103.573203,20.8624909 100.916177,19.95 97.598085,19.95 C94.5910639,19.95 92.0377265,20.8749908 89.9379963,22.725 C87.838266,24.5750093 86.7624944,26.999985 86.7106492,30 L86.7106492,30.225 L108.563288,30.225 Z M152.73517,2.025 C152.73517,1.47499725 152.942548,1.000002 153.35731,0.6 C153.772071,0.199998 154.264593,0 154.83489,0 L157.712284,0 C158.282581,0 158.775103,0.199998 159.189865,0.6 C159.604626,1.000002 159.812004,1.47499725 159.812004,2.025 L159.812004,51.225 C159.812004,51.7750028 159.604626,52.249998 159.189865,52.65 C158.775103,53.050002 158.282581,53.25 157.712284,53.25 L154.83489,53.25 C154.264593,53.25 153.772071,53.050002 153.35731,52.65 C152.942548,52.249998 152.73517,51.7750028 152.73517,51.225 L152.73517,48.9 C150.091066,52.300017 146.073124,54 140.681224,54 C137.466822,54 134.550574,53.2750073 131.932391,51.825 C129.314209,50.3749928 127.21451,48.3000135 125.633232,45.6 C124.051954,42.8999865 123.18356,39.750018 123.028024,36.15 L122.950257,33.675 L123.028024,31.275 C123.18356,27.674982 124.051954,24.5375134 125.633232,21.8625 C127.21451,19.1874866 129.301248,17.1250073 131.893508,15.675 C134.485767,14.2249928 137.414977,13.5 140.681224,13.5 C143.584554,13.5 146.034203,13.9874951 148.030243,14.9625 C150.026283,15.9375049 151.594576,17.1499928 152.73517,18.6 L152.73517,2.025 Z M149.46894,22.875 C147.446977,20.9249903 144.77699,19.95 141.458898,19.95 C138.08896,19.95 135.406012,20.9999895 133.409972,23.1 C131.413932,25.2000105 130.312238,28.049982 130.104858,31.65 L130.02709,33.75 L130.104858,35.85 C130.312238,39.450018 131.413932,42.2999895 133.409972,44.4 C135.406012,46.5000105 138.08896,47.55 141.458898,47.55 C144.6733,47.55 147.317365,46.5875096 149.391172,44.6625 C151.46498,42.7374904 152.579635,40.175016 152.73517,36.975 C152.787016,36.4749975 152.812938,35.4750075 152.812938,33.975 C152.812938,32.5249928 152.787016,31.5500025 152.73517,31.05 C152.579635,27.5499825 151.490902,24.8250098 149.46894,22.875 Z M178.709482,7.725 C178.29472,8.125002 177.802198,8.325 177.231901,8.325 L172.799159,8.325 C172.228862,8.325 171.73634,8.125002 171.321579,7.725 C170.906817,7.324998 170.69944,6.85000275 170.69944,6.3 L170.69944,2.025 C170.69944,1.47499725 170.906817,1.000002 171.321579,0.6 C171.73634,0.199998 172.228862,0 172.799159,0 L177.231901,0 C177.802198,0 178.29472,0.199998 178.709482,0.6 C179.124243,1.000002 179.331621,1.47499725 179.331621,2.025 L179.331621,6.3 C179.331621,6.85000275 179.124243,7.324998 178.709482,7.725 Z M177.931808,52.65 C177.517046,53.050002 177.024524,53.25 176.454227,53.25 L173.576833,53.25 C173.006536,53.25 172.514014,53.050002 172.099253,52.65 C171.684491,52.249998 171.477113,51.7750028 171.477113,51.225 L171.477113,16.275 C171.477113,15.7249973 171.684491,15.250002 172.099253,14.85 C172.514014,14.449998 173.006536,14.25 173.576833,14.25 L176.454227,14.25 C177.024524,14.25 177.517046,14.449998 177.931808,14.85 C178.346569,15.250002 178.553947,15.7249973 178.553947,16.275 L178.553947,51.225 C178.553947,51.7750028 178.346569,52.249998 177.931808,52.65 Z M227.702943,44.25 L235.635217,2.775 C235.790753,2.0749965 236.088858,1.56250163 236.529542,1.2375 C236.970226,0.912498375 237.475709,0.75 238.046007,0.75 L241.156702,0.75 C241.623309,0.75 242.025103,0.912498375 242.362097,1.2375 C242.699091,1.56250163 242.867585,1.94999775 242.867585,2.4 L242.789818,3 L233.224428,49.35 C232.913357,50.7000068 232.498601,51.6874969 231.980149,52.3125 C231.461698,52.9375031 230.606265,53.25 229.413825,53.25 L226.303129,53.25 C225.162535,53.25 224.307102,52.9125034 223.736805,52.2375 C223.166508,51.5624966 222.699908,50.6000063 222.336992,49.35 L215.182391,24.3 L208.027791,49.35 C207.664874,50.6000063 207.198275,51.5624966 206.627978,52.2375 C206.05768,52.9125034 205.202248,53.25 204.061653,53.25 L200.950957,53.25 C199.758518,53.25 198.903085,52.9375031 198.384633,52.3125 C197.866181,51.6874969 197.451426,50.7000068 197.140355,49.35 L187.574965,3 L187.497198,2.4 C187.497198,1.94999775 187.665692,1.56250163 188.002686,1.2375 C188.339679,0.912498375 188.741474,0.75 189.20808,0.75 L192.318776,0.75 C192.889073,0.75 193.394556,0.912498375 193.835241,1.2375 C194.275925,1.56250163 194.57403,2.0749965 194.729566,2.775 L202.66184,44.25 L211.216254,14.55 C211.319944,14.0499975 211.579167,13.5625024 211.993928,13.0875 C212.40869,12.6124976 213.030823,12.375 213.860346,12.375 L216.504437,12.375 C217.33396,12.375 217.956093,12.6124976 218.370855,13.0875 C218.785616,13.5625024 219.044838,14.0499975 219.148529,14.55 L227.702943,44.25 Z M259.043204,7.725 C258.628443,8.125002 258.135921,8.325 257.565624,8.325 L253.132882,8.325 C252.562585,8.325 252.070063,8.125002 251.655301,7.725 C251.24054,7.324998 251.033162,6.85000275 251.033162,6.3 L251.033162,2.025 C251.033162,1.47499725 251.24054,1.000002 251.655301,0.6 C252.070063,0.199998 252.562585,0 253.132882,0 L257.565624,0 C258.135921,0 258.628443,0.199998 259.043204,0.6 C259.457966,1.000002 259.665343,1.47499725 259.665343,2.025 L259.665343,6.3 C259.665343,6.85000275 259.457966,7.324998 259.043204,7.725 Z M258.26553,52.65 C257.850769,53.050002 257.358247,53.25 256.78795,53.25 L253.910556,53.25 C253.340259,53.25 252.847737,53.050002 252.432975,52.65 C252.018214,52.249998 251.810836,51.7750028 251.810836,51.225 L251.810836,16.275 C251.810836,15.7249973 252.018214,15.250002 252.432975,14.85 C252.847737,14.449998 253.340259,14.25 253.910556,14.25 L256.78795,14.25 C257.358247,14.25 257.850769,14.449998 258.26553,14.85 C258.680292,15.250002 258.887669,15.7249973 258.887669,16.275 L258.887669,51.225 C258.887669,51.7750028 258.680292,52.249998 258.26553,52.65 Z M292.560953,14.85 C292.975714,15.250002 293.183092,15.7249973 293.183092,16.275 L293.183092,18.675 C293.183092,19.2250028 292.975714,19.699998 292.560953,20.1 C292.146191,20.500002 291.653669,20.7 291.083372,20.7 L286.572863,20.7 C283.669532,20.7 281.453184,21.4374926 279.923751,22.9125 C278.394317,24.3875074 277.629612,26.524986 277.629612,29.325 L277.629612,51.225 C277.629612,51.7750028 277.422235,52.249998 277.007473,52.65 C276.592712,53.050002 276.10019,53.25 275.529893,53.25 L272.652499,53.25 C272.082202,53.25 271.58968,53.050002 271.174918,52.65 C270.760157,52.249998 270.552779,51.7750028 270.552779,51.225 L270.552779,16.275 C270.552779,15.7249973 270.760157,15.250002 271.174918,14.85 C271.58968,14.449998 272.082202,14.25 272.652499,14.25 L275.529893,14.25 C276.10019,14.25 276.592712,14.449998 277.007473,14.85 C277.422235,15.250002 277.629612,15.7249973 277.629612,16.275 L277.629612,18.6 C278.666516,17.0999925 279.910782,16.0000035 281.362447,15.3 C282.814113,14.5999965 284.706434,14.25 287.039468,14.25 L291.083372,14.25 C291.653669,14.25 292.146191,14.449998 292.560953,14.85 Z M328.178421,18.6 C331.392823,22.000017 333,26.6249708 333,32.475 L333,34.5 C333,35.0500028 332.792622,35.524998 332.377861,35.925 C331.963099,36.325002 331.470577,36.525 330.90028,36.525 L304.148295,36.525 L304.148295,36.975 C304.251986,40.2750165 305.301835,42.8624906 307.297875,44.7375 C309.293915,46.6125094 311.873174,47.55 315.035731,47.55 C317.627991,47.55 319.636962,47.2250033 321.062704,46.575 C322.488447,45.9249968 323.771596,45.000006 324.912191,43.8 C325.326952,43.399998 325.702824,43.1250008 326.039818,42.975 C326.376812,42.8249993 326.83045,42.75 327.400747,42.75 L329.733769,42.75 C330.355912,42.75 330.874356,42.949998 331.289117,43.35 C331.703879,43.750002 331.885334,44.2249973 331.833489,44.775 C331.626108,46.1250068 330.861403,47.5124929 329.539351,48.9375 C328.217298,50.3625071 326.324977,51.5624951 323.862331,52.5375 C321.399684,53.5125049 318.457514,54 315.035731,54 C311.717639,54 308.762507,53.2625074 306.170248,51.7875 C303.577988,50.3124926 301.517173,48.275013 299.987739,45.675 C298.458306,43.074987 297.538068,40.1500163 297.226997,36.9 C297.123306,35.3999925 297.071462,34.250004 297.071462,33.45 C297.071462,32.649996 297.123306,31.5000075 297.226997,30 C297.538068,26.8999845 298.458306,24.1000125 299.987739,21.6 C301.517173,19.0999875 303.565027,17.1250073 306.131364,15.675 C308.697701,14.2249928 311.665794,13.5 315.035731,13.5 C320.583166,13.5 324.964019,15.199983 328.178421,18.6 Z M326.000934,30.225 L326.000934,30 C326.000934,26.9499848 325.002929,24.5125091 323.006889,22.6875 C321.010849,20.8624909 318.353823,19.95 315.035731,19.95 C312.02871,19.95 309.475372,20.8749908 307.375642,22.725 C305.275912,24.5750093 304.20014,26.999985 304.148295,30 L304.148295,30.225 L326.000934,30.225 Z" id="CrediWire" fill="#1E1E1E"></path>
            </g>
        </g>
    </g>
</svg>