<?xml version="1.0" encoding="utf-8"?>
<!-- Generator: Adobe Illustrator 22.1.0, SVG Export Plug-In . SVG Version: 6.00 Build 0)  -->
<svg version="1.1" id="Layer_1" xmlns="http://www.w3.org/2000/svg" xmlns:xlink="http://www.w3.org/1999/xlink" x="0px" y="0px"
	 viewBox="0 0 350 350" style="enable-background:new 0 0 350 350;" xml:space="preserve">
<style type="text/css">
	.st0{fill:none;stroke:#2FABFF;stroke-width:10;stroke-linecap:round;stroke-miterlimit:10;}
</style>
<g>
	<path class="st0" d="M121.5,165.6c19.8,0,35.7-16.1,35.7-35.7s-15.9-35.7-35.7-35.7c-19.6,0-35.7,16.1-35.7,35.7
		S101.8,165.6,121.5,165.6z M228.5,165.6c19.8,0,35.7-16.1,35.7-35.7s-15.9-35.7-35.7-35.7s-35.7,16.1-35.7,35.7
		S208.9,165.6,228.5,165.6z M121.5,187c-29.8,0-89.2,14.8-89.2,44.6v23.2h178.4v-23.2C210.7,201.8,151.3,187,121.5,187z M228.5,187
		c-4.5,0-9.6,0.4-15,1.1c14.1,10.7,23.9,25,23.9,43.5v23.2h80.3v-23.2C317.8,201.8,258.3,187,228.5,187z"/>
</g>
</svg>
