<svg id="Layer_1" data-name="Layer 1" xmlns="http://www.w3.org/2000/svg" viewBox="0 0 162 162"><defs><style>.cls-1{fill:none;stroke:#2fabff;stroke-linecap:round;stroke-miterlimit:10;stroke-width:7px;}</style></defs><title>money-coins</title><polyline class="cls-1" points="81 117.17 3.5 117.17 3.5 3.5 158.5 3.5 158.5 75.83"/><circle class="cls-1" cx="81" cy="60.33" r="15.5"/><path class="cls-1" d="M191.83,124.67V98.83a20.34,20.34,0,0,1-20.66-20.66H98.83A20.34,20.34,0,0,1,78.17,98.83v31A20.34,20.34,0,0,1,98.83,150.5H135" transform="translate(-54 -54)"/><path class="cls-1" d="M150.5,155.67v20.66c0,8.56,13.88,15.5,31,15.5s31-6.94,31-15.5V155.67" transform="translate(-54 -54)"/><path class="cls-1" d="M150.5,176.33V197c0,8.56,13.88,15.5,31,15.5s31-6.94,31-15.5V176.33" transform="translate(-54 -54)"/><ellipse class="cls-1" cx="127.5" cy="101.67" rx="31" ry="15.5"/></svg>